<svg width="32" height="32" viewBox="0 0 32 32" fill="none" xmlns="http://www.w3.org/2000/svg">
<g clip-path="url(#clip0_75996_6414)">
<path d="M24 16L12 23.9999V8L24 16ZM16 0.00299072C7.17524 0.00299072 0.00292969 7.1753 0.00292969 16C0.00292969 24.8247 7.17524 31.997 16 31.997C24.8247 31.997 31.997 24.8247 31.997 16C31.997 7.1753 24.8247 0.00299072 16 0.00299072ZM16 1.99704C23.7438 1.99704 30.0029 8.2562 30.0029 16C30.0029 23.7438 23.7438 30.0029 16 30.0029C8.25612 30.0029 1.99698 23.7438 1.99698 16C1.99698 8.2562 8.25612 1.99704 16 1.99704Z" fill="black" fill-opacity="0.5"/>
</g>
<defs>
<clipPath id="clip0_75996_6414">
<rect width="32" height="32" fill="white"/>
</clipPath>
</defs>
</svg>
