<svg width="32" height="32" viewBox="0 0 32 32" fill="none" xmlns="http://www.w3.org/2000/svg">
<g clip-path="url(#clip0_76094_523)">
<path d="M8.00005 16L20 23.9999V8L8.00005 16ZM16 0.00299072C24.8248 0.00299072 31.9971 7.1753 31.9971 16C31.9971 24.8247 24.8248 31.997 16 31.997C7.17534 31.997 0.00302124 24.8247 0.00302124 16C0.00302124 7.1753 7.17534 0.00299072 16 0.00299072ZM16 1.99704C8.25622 1.99704 1.99707 8.2562 1.99707 16C1.99707 23.7438 8.25622 30.0029 16 30.0029C23.7439 30.0029 30.003 23.7438 30.003 16C30.003 8.2562 23.7439 1.99704 16 1.99704Z" fill="black" fill-opacity="0.5"/>
</g>
<defs>
<clipPath id="clip0_76094_523">
<rect width="32" height="32" fill="white" transform="matrix(-1 0 0 1 32 0)"/>
</clipPath>
</defs>
</svg>
