<svg width="21" height="21" viewBox="0 0 21 21" fill="none" xmlns="http://www.w3.org/2000/svg">
<path d="M2.68419 14.4456C4.09196 15.8606 5.96667 16.7101 7.95514 16.8339C9.94361 16.9578 11.9086 16.3475 13.4798 15.1181L18.8863 20.5446C19.0781 20.7305 19.3349 20.8333 19.6014 20.831C19.868 20.8287 20.123 20.7214 20.3115 20.5322C20.4999 20.343 20.6069 20.0871 20.6092 19.8195C20.6115 19.552 20.509 19.2942 20.3238 19.1018L14.9174 13.6752C16.1966 12.0274 16.8014 9.95192 16.6084 7.87194C16.4154 5.79196 15.4392 3.86421 13.8789 2.48184C12.3185 1.09946 10.2915 0.366581 8.2113 0.432669C6.13108 0.498756 4.15433 1.35883 2.68419 2.83749C1.92456 3.59955 1.32196 4.50437 0.910829 5.50025C0.499697 6.49614 0.288086 7.56357 0.288086 8.64156C0.288086 9.71956 0.499697 10.787 0.910829 11.7829C1.32196 12.7788 1.92456 13.6836 2.68419 14.4456ZM4.12171 4.28238C5.12673 3.27366 6.44912 2.6459 7.86357 2.50605C9.27802 2.36621 10.697 2.72294 11.8788 3.51547C13.0606 4.30799 13.9321 5.48728 14.3447 6.8524C14.7573 8.21752 14.6857 9.68402 14.1418 11.002C13.598 12.32 12.6157 13.408 11.3623 14.0806C10.1089 14.7532 8.66193 14.9688 7.26792 14.6906C5.8739 14.4125 4.61909 13.6578 3.71729 12.5552C2.81549 11.4525 2.32248 10.0702 2.32227 8.6436C2.31948 7.83297 2.47711 7.02984 2.786 6.28083C3.0949 5.53182 3.54892 4.85184 4.12171 4.28034V4.28238Z" fill="#F76B56"/>
</svg>
